<?xml version="1.0" encoding="UTF-8" standalone="no"?>
<!DOCTYPE svg PUBLIC "-//W3C//DTD SVG 1.1//EN"
 "http://www.w3.org/Graphics/SVG/1.1/DTD/svg11.dtd">
<!-- Generated by graphviz version 2.43.0 (0)
 -->
<!-- Title: openflow Pages: 1 -->
<svg width="396pt" height="476pt"
 viewBox="0.00 0.00 395.50 476.00" xmlns="http://www.w3.org/2000/svg" xmlns:xlink="http://www.w3.org/1999/xlink">
<g id="graph0" class="graph" transform="scale(1 1) rotate(0) translate(4 472)">
<title>openflow</title>
<polygon fill="white" stroke="transparent" points="-4,4 -4,-472 391.5,-472 391.5,4 -4,4"/>
<!-- GHDL -->
<g id="node1" class="node">
<title>GHDL</title>
<polygon fill="none" stroke="black" points="60,-414 0,-414 0,-378 60,-378 60,-414"/>
<text text-anchor="middle" x="30" y="-392.3" font-family="Times,serif" font-size="14.00">GHDL</text>
</g>
<!-- ghdl&#45;yosys&#45;plugin -->
<g id="node2" class="node">
<title>ghdl&#45;yosys&#45;plugin</title>
<polygon fill="none" stroke="black" points="220,-414 78,-414 78,-378 220,-378 220,-414"/>
<text text-anchor="middle" x="149" y="-392.3" font-family="Times,serif" font-size="14.00">ghdl&#45;yosys&#45;plugin</text>
</g>
<!-- GHDL&#45;&gt;ghdl&#45;yosys&#45;plugin -->
<g id="edge3" class="edge">
<title>GHDL&#45;&gt;ghdl&#45;yosys&#45;plugin</title>
<path fill="none" stroke="black" d="M60.21,-396C62.7,-396 65.19,-396 67.68,-396"/>
<polygon fill="black" stroke="black" points="67.9,-399.5 77.9,-396 67.9,-392.5 67.9,-399.5"/>
</g>
<!-- Yosys -->
<g id="node3" class="node">
<title>Yosys</title>
<polygon fill="none" stroke="black" points="294,-414 238,-414 238,-378 294,-378 294,-414"/>
<text text-anchor="middle" x="266" y="-392.3" font-family="Times,serif" font-size="14.00">Yosys</text>
</g>
<!-- ghdl&#45;yosys&#45;plugin&#45;&gt;Yosys -->
<g id="edge4" class="edge">
<title>ghdl&#45;yosys&#45;plugin&#45;&gt;Yosys</title>
<path fill="none" stroke="black" d="M220.3,-396C222.76,-396 225.22,-396 227.68,-396"/>
<polygon fill="black" stroke="black" points="227.79,-399.5 237.79,-396 227.79,-392.5 227.79,-399.5"/>
</g>
<!-- .json -->
<g id="node15" class="node">
<title>.json</title>
<ellipse fill="none" stroke="black" cx="266" cy="-342" rx="32.49" ry="18"/>
<text text-anchor="middle" x="266" y="-338.3" font-family="Times,serif" font-size="14.00">.json</text>
</g>
<!-- Yosys&#45;&gt;.json -->
<g id="edge6" class="edge">
<title>Yosys&#45;&gt;.json</title>
<path fill="none" stroke="black" d="M266,-377.97C266,-375.57 266,-373.06 266,-370.52"/>
<polygon fill="black" stroke="black" points="269.5,-370.24 266,-360.24 262.5,-370.24 269.5,-370.24"/>
</g>
<!-- nextpnr&#45;ice40 -->
<g id="node4" class="node">
<title>nextpnr&#45;ice40</title>
<polygon fill="none" stroke="black" points="258,-306 142,-306 142,-270 258,-270 258,-306"/>
<text text-anchor="middle" x="200" y="-284.3" font-family="Times,serif" font-size="14.00">nextpnr&#45;ice40</text>
</g>
<!-- .asc -->
<g id="node16" class="node">
<title>.asc</title>
<ellipse fill="none" stroke="black" cx="200" cy="-234" rx="28.7" ry="18"/>
<text text-anchor="middle" x="200" y="-230.3" font-family="Times,serif" font-size="14.00">.asc</text>
</g>
<!-- nextpnr&#45;ice40&#45;&gt;.asc -->
<g id="edge9" class="edge">
<title>nextpnr&#45;ice40&#45;&gt;.asc</title>
<path fill="none" stroke="black" d="M200,-269.97C200,-267.57 200,-265.06 200,-262.52"/>
<polygon fill="black" stroke="black" points="203.5,-262.24 200,-252.24 196.5,-262.24 203.5,-262.24"/>
</g>
<!-- nextpnr&#45;ecp5 -->
<g id="node5" class="node">
<title>nextpnr&#45;ecp5</title>
<polygon fill="none" stroke="black" points="387.5,-306 276.5,-306 276.5,-270 387.5,-270 387.5,-306"/>
<text text-anchor="middle" x="332" y="-284.3" font-family="Times,serif" font-size="14.00">nextpnr&#45;ecp5</text>
</g>
<!-- .config -->
<g id="node17" class="node">
<title>.config</title>
<ellipse fill="none" stroke="black" cx="332" cy="-234" rx="41.69" ry="18"/>
<text text-anchor="middle" x="332" y="-230.3" font-family="Times,serif" font-size="14.00">.config</text>
</g>
<!-- nextpnr&#45;ecp5&#45;&gt;.config -->
<g id="edge10" class="edge">
<title>nextpnr&#45;ecp5&#45;&gt;.config</title>
<path fill="none" stroke="black" d="M332,-269.97C332,-267.57 332,-265.06 332,-262.52"/>
<polygon fill="black" stroke="black" points="335.5,-262.24 332,-252.24 328.5,-262.24 335.5,-262.24"/>
</g>
<!-- icetime -->
<g id="node6" class="node">
<title>icetime</title>
<polygon fill="none" stroke="black" points="167.5,-198 98.5,-198 98.5,-162 167.5,-162 167.5,-198"/>
<text text-anchor="middle" x="133" y="-176.3" font-family="Times,serif" font-size="14.00">icetime</text>
</g>
<!-- icepack -->
<g id="node7" class="node">
<title>icepack</title>
<polygon fill="none" stroke="black" points="256,-198 186,-198 186,-162 256,-162 256,-198"/>
<text text-anchor="middle" x="221" y="-176.3" font-family="Times,serif" font-size="14.00">icepack</text>
</g>
<!-- bit&#45;ice40 -->
<g id="node13" class="node">
<title>bit&#45;ice40</title>
<ellipse fill="none" stroke="black" cx="221" cy="-126" rx="27" ry="18"/>
<text text-anchor="middle" x="221" y="-122.3" font-family="Times,serif" font-size="14.00">.bit</text>
</g>
<!-- icepack&#45;&gt;bit&#45;ice40 -->
<g id="edge13" class="edge">
<title>icepack&#45;&gt;bit&#45;ice40</title>
<path fill="none" stroke="black" d="M221,-161.97C221,-159.57 221,-157.06 221,-154.52"/>
<polygon fill="black" stroke="black" points="224.5,-154.24 221,-144.24 217.5,-154.24 224.5,-154.24"/>
</g>
<!-- iceprog -->
<g id="node8" class="node">
<title>iceprog</title>
<polygon fill="none" stroke="black" points="256,-90 186,-90 186,-54 256,-54 256,-90"/>
<text text-anchor="middle" x="221" y="-68.3" font-family="Times,serif" font-size="14.00">iceprog</text>
</g>
<!-- ice40 -->
<g id="node12" class="node">
<title>ice40</title>
<polygon fill="none" stroke="black" points="248.5,-36 197.5,-36 193.5,-32 193.5,0 244.5,0 248.5,-4 248.5,-36"/>
<polyline fill="none" stroke="black" points="244.5,-32 193.5,-32 "/>
<polyline fill="none" stroke="black" points="244.5,-32 244.5,0 "/>
<polyline fill="none" stroke="black" points="244.5,-32 248.5,-36 "/>
<text text-anchor="middle" x="221" y="-14.3" font-family="Times,serif" font-size="14.00">ice40</text>
</g>
<!-- iceprog&#45;&gt;ice40 -->
<g id="edge15" class="edge">
<title>iceprog&#45;&gt;ice40</title>
<path fill="none" stroke="black" d="M221,-53.97C221,-51.57 221,-49.06 221,-46.52"/>
<polygon fill="black" stroke="black" points="224.5,-46.24 221,-36.24 217.5,-46.24 224.5,-46.24"/>
</g>
<!-- eccpack -->
<g id="node9" class="node">
<title>eccpack</title>
<polygon fill="none" stroke="black" points="368.5,-198 295.5,-198 295.5,-162 368.5,-162 368.5,-198"/>
<text text-anchor="middle" x="332" y="-176.3" font-family="Times,serif" font-size="14.00">eccpack</text>
</g>
<!-- bit&#45;ecp5 -->
<g id="node14" class="node">
<title>bit&#45;ecp5</title>
<ellipse fill="none" stroke="black" cx="332" cy="-126" rx="27" ry="18"/>
<text text-anchor="middle" x="332" y="-122.3" font-family="Times,serif" font-size="14.00">.bit</text>
</g>
<!-- eccpack&#45;&gt;bit&#45;ecp5 -->
<g id="edge17" class="edge">
<title>eccpack&#45;&gt;bit&#45;ecp5</title>
<path fill="none" stroke="black" d="M332,-161.97C332,-159.57 332,-157.06 332,-154.52"/>
<polygon fill="black" stroke="black" points="335.5,-154.24 332,-144.24 328.5,-154.24 335.5,-154.24"/>
</g>
<!-- VHDL -->
<g id="node10" class="node">
<title>VHDL</title>
<polygon fill="none" stroke="black" points="113.5,-468 60.5,-468 60.5,-432 119.5,-432 119.5,-462 113.5,-468"/>
<polyline fill="none" stroke="black" points="113.5,-468 113.5,-462 "/>
<polyline fill="none" stroke="black" points="119.5,-462 113.5,-462 "/>
<text text-anchor="middle" x="90" y="-446.3" font-family="Times,serif" font-size="14.00">VHDL</text>
</g>
<!-- VHDL&#45;&gt;GHDL -->
<g id="edge1" class="edge">
<title>VHDL&#45;&gt;GHDL</title>
<path fill="none" stroke="black" d="M70.35,-431.97C66.25,-428.42 61.86,-424.61 57.53,-420.86"/>
<polygon fill="black" stroke="black" points="59.74,-418.15 49.9,-414.24 55.16,-423.44 59.74,-418.15"/>
</g>
<!-- VHDL&#45;&gt;ghdl&#45;yosys&#45;plugin -->
<g id="edge2" class="edge">
<title>VHDL&#45;&gt;ghdl&#45;yosys&#45;plugin</title>
<path fill="none" stroke="black" d="M109.32,-431.97C113.35,-428.42 117.67,-424.61 121.93,-420.86"/>
<polygon fill="black" stroke="black" points="124.25,-423.48 129.44,-414.24 119.62,-418.23 124.25,-423.48"/>
</g>
<!-- Verilog -->
<g id="node11" class="node">
<title>Verilog</title>
<polygon fill="none" stroke="black" points="293.5,-468 232.5,-468 232.5,-432 299.5,-432 299.5,-462 293.5,-468"/>
<polyline fill="none" stroke="black" points="293.5,-468 293.5,-462 "/>
<polyline fill="none" stroke="black" points="299.5,-462 293.5,-462 "/>
<text text-anchor="middle" x="266" y="-446.3" font-family="Times,serif" font-size="14.00">Verilog</text>
</g>
<!-- Verilog&#45;&gt;Yosys -->
<g id="edge5" class="edge">
<title>Verilog&#45;&gt;Yosys</title>
<path fill="none" stroke="black" d="M266,-431.97C266,-429.57 266,-427.06 266,-424.52"/>
<polygon fill="black" stroke="black" points="269.5,-424.24 266,-414.24 262.5,-424.24 269.5,-424.24"/>
</g>
<!-- bit&#45;ice40&#45;&gt;iceprog -->
<g id="edge14" class="edge">
<title>bit&#45;ice40&#45;&gt;iceprog</title>
<path fill="none" stroke="black" d="M221,-107.97C221,-105.57 221,-103.06 221,-100.52"/>
<polygon fill="black" stroke="black" points="224.5,-100.24 221,-90.24 217.5,-100.24 224.5,-100.24"/>
</g>
<!-- .json&#45;&gt;nextpnr&#45;ice40 -->
<g id="edge7" class="edge">
<title>.json&#45;&gt;nextpnr&#45;ice40</title>
<path fill="none" stroke="black" d="M247.97,-326.79C242.4,-322.41 236.12,-317.46 229.98,-312.62"/>
<polygon fill="black" stroke="black" points="231.79,-309.59 221.77,-306.15 227.46,-315.09 231.79,-309.59"/>
</g>
<!-- .json&#45;&gt;nextpnr&#45;ecp5 -->
<g id="edge8" class="edge">
<title>.json&#45;&gt;nextpnr&#45;ecp5</title>
<path fill="none" stroke="black" d="M284.03,-326.79C289.6,-322.41 295.88,-317.46 302.02,-312.62"/>
<polygon fill="black" stroke="black" points="304.54,-315.09 310.23,-306.15 300.21,-309.59 304.54,-315.09"/>
</g>
<!-- .asc&#45;&gt;icetime -->
<g id="edge11" class="edge">
<title>.asc&#45;&gt;icetime</title>
<path fill="none" stroke="black" d="M182.75,-219.61C176.86,-215.04 170.08,-209.78 163.47,-204.65"/>
<polygon fill="black" stroke="black" points="165.3,-201.64 155.26,-198.27 161.01,-207.17 165.3,-201.64"/>
</g>
<!-- .asc&#45;&gt;icepack -->
<g id="edge12" class="edge">
<title>.asc&#45;&gt;icepack</title>
<path fill="none" stroke="black" d="M206.76,-216.26C207.9,-213.44 209.1,-210.46 210.31,-207.46"/>
<polygon fill="black" stroke="black" points="213.61,-208.65 214.11,-198.06 207.12,-206.03 213.61,-208.65"/>
</g>
<!-- .config&#45;&gt;eccpack -->
<g id="edge16" class="edge">
<title>.config&#45;&gt;eccpack</title>
<path fill="none" stroke="black" d="M332,-215.97C332,-213.57 332,-211.06 332,-208.52"/>
<polygon fill="black" stroke="black" points="335.5,-208.24 332,-198.24 328.5,-208.24 335.5,-208.24"/>
</g>
</g>
</svg>
